<svg xmlns="http://www.w3.org/2000/svg" viewBox="0 0 1024 1024"><title>koromo-vue</title><text transform="translate(73.32 936.41)" style="font-size:150px;fill:#435466;font-family:CenturyGothic, Century Gothic">koromo-<tspan x="605.57" y="0" style="font-family:CenturyGothic-Bold, Century Gothic;font-weight:700">vue</tspan></text><polygon points="523.9 303.44 853.95 303.44 523.9 63.65 523.9 303.44" style="fill:#ddd"/><polygon points="501.52 303.44 501.52 63.65 171.46 303.44 501.52 303.44" style="fill:#eee"/><polygon points="530.97 325.82 611.74 484.35 829.93 325.82 530.97 325.82" style="fill:#bbb"/><polygon points="623.27 556.29 508.68 331.39 386.18 420.4 386.18 728.55 623.27 556.29" style="fill:#ccc"/><polygon points="363.79 730.36 363.79 436.66 229.67 534.1 293.44 730.36 363.79 730.36" style="fill:#ddd"/><polygon points="162 325.82 222.4 511.72 478.26 325.82 162 325.82" style="fill:#eee"/><path d="M622,504.54,732.68,721.7a11.19,11.19,0,0,1,1.06,3.24L862,330.19Z" style="fill:#aaa"/><polygon points="633.56 576.48 421.77 730.36 711.97 730.36 633.56 576.48" style="fill:#aaa"/><path d="M587.12,207,512,337.06,436.88,207H186.72L512,770.36,837.28,207Z" style="fill:#4dba87"/><path d="M587.12,207,512,337.06,436.88,207h-120L512,545,707.17,207Z" style="fill:#435466"/></svg>