<svg xmlns="http://www.w3.org/2000/svg" viewBox="0 0 1024 1024"><defs><style>.a{fill:#444955;}</style></defs><title>koromo-light</title><polygon class="a" points="523.9 298.44 853.95 298.44 523.9 58.65 523.9 298.44"/><polygon class="a" points="501.52 298.44 501.52 58.65 171.46 298.44 501.52 298.44"/><polygon class="a" points="530.97 320.82 611.74 479.35 829.93 320.82 530.97 320.82"/><polygon class="a" points="623.27 551.29 508.68 326.39 386.18 415.4 386.18 723.55 623.27 551.29"/><polygon class="a" points="363.79 725.36 363.79 431.66 229.67 529.1 293.44 725.36 363.79 725.36"/><polygon class="a" points="162 320.82 222.4 506.72 478.26 320.82 162 320.82"/><path class="a" d="M622,499.54,732.68,716.7a11.19,11.19,0,0,1,1.06,3.24L862,325.19Z"/><polygon class="a" points="633.56 571.48 421.77 725.36 711.97 725.36 633.56 571.48"/><path class="a" d="M277.86,917.19v10.47q-17.5,20.46-29.38,31t-19.84,10.55a22.83,22.83,0,0,1-13.83-4.53,43.77,43.77,0,0,1-11.09-12.5A235.65,235.65,0,0,1,192.08,930q-8,9.84-14.38,18.36t-8.9,11.33q-2.51,2.8-4.53,2.81-4.23,0-6.1-5.39t-1.87-15.7a108.26,108.26,0,0,1,3.36-27.11,122.36,122.36,0,0,1,9.68-25.39,237.57,237.57,0,0,1,16.25-26.64q9.93-14.31,22.27-29.93,17-21.55,29.37-35.23t21.49-20.63q9.13-6.94,15.23-7,7.5,0,7.5,6.72,0,5.79-27.65,41.64t-80.63,97.89v13.44q35.47-38,57.11-56.41t33.52-18.43q4.83,0,7.5,5.7a31,31,0,0,1,2.65,13.2q0,15.32-13.12,28.36t-40.31,29.92a54.53,54.53,0,0,0,8.28,10.24,13.11,13.11,0,0,0,9.06,3.2,21,21,0,0,0,10.47-3.28,79.82,79.82,0,0,0,11.48-8.28Q265.68,928.45,277.86,917.19Zm-61.72,8a121.2,121.2,0,0,0,14.77-12.11A110.72,110.72,0,0,0,246,896q6.26-8.84,6.25-14.77c0-1.67-.73-2.5-2.18-2.5q-5.94,0-20.39,11.41t-28.21,29.22Q207.39,919.38,216.14,925.16Z"/><path class="a" d="M377.39,916.88v10.46q-10.31,9.38-16.56,12.5t-18,2.5q-20.31,24.07-35.78,24.07a24.79,24.79,0,0,1-15.94-5.79,40,40,0,0,1-11.48-15.78,55.91,55.91,0,0,1-4.3-22.34q0-10,6.64-22.19a99.6,99.6,0,0,1,17.19-22.73,96.87,96.87,0,0,1,22.58-17q12-6.48,22.34-6.49,7.33,0,11.56,2.27t4.22,6.33c0,2.08-1.2,4.48-3.59,7.18q5.93,1.26,8.12,4.14t2.19,10.55q0,7.5-3.52,18.91a93.8,93.8,0,0,1-9.61,21.4l2.82,2.82h2.34a11.42,11.42,0,0,0,5.24-1.33,35.48,35.48,0,0,0,4.6-2.81Q370.52,922,377.39,916.88Zm-32.19-41.1q-13,7.82-22.18,14.14a107.22,107.22,0,0,0-15.63,12.81q-6.4,6.49-8.59,13-3.92,17.51-3.91,18.91,0,10.3,14.38,10.31,6.71,0,22.5-11.56a41.1,41.1,0,0,1-2.66-14.06,54.11,54.11,0,0,1,4.06-20.08A166.91,166.91,0,0,1,345.2,875.78Z"/><path class="a" d="M375.52,929.22V919.06a153.71,153.71,0,0,0,12.81-17,17.13,17.13,0,0,1-7.27-4.22q-2.26-2.49-2.26-7.5,0-5.62,4.68-14.22A81.83,81.83,0,0,1,395.05,860q6.87-7.5,12.5-9.69a9.36,9.36,0,0,1,4.22-1.09q3.12,0,3.12,3,0,2.65-4.84,10.78,32.18-5,40.62-5a11.39,11.39,0,0,1,4.53.62q2.66,1.41,4.38,6.57a32.55,32.55,0,0,1,1.72,10.31c0,2.19-1,4.56-2.89,7.11a141.92,141.92,0,0,1-9.93,11.17,93.32,93.32,0,0,0-13.9,19.37Q429,923.61,429,928.91q0,7.33,9.07,7.34,9.53,0,33.12-19.37v10.46q-13,13.6-21.41,21.41a114.17,114.17,0,0,1-15.62,12.42q-7.19,4.62-12.81,4.61-6.57,0-10.94-6T406,942.34A42,42,0,0,1,409.42,927a106,106,0,0,1,10.08-18.67,230.66,230.66,0,0,1,14.92-20.08q-4.38.94-9.84,2T413,892.34c-4.07.73-7.19,1.31-9.38,1.72Q394,913.44,375.52,929.22Z"/><path class="a" d="M571,916.88v10.46q-10.31,9.38-16.56,12.5t-18,2.5q-20.31,24.07-35.78,24.07a24.81,24.81,0,0,1-15.94-5.79,40,40,0,0,1-11.48-15.78A55.91,55.91,0,0,1,469,922.5q0-10,6.64-22.19a99.6,99.6,0,0,1,17.19-22.73,97.08,97.08,0,0,1,22.58-17q12-6.48,22.34-6.49,7.35,0,11.57,2.27t4.21,6.33c0,2.08-1.19,4.48-3.59,7.18q5.94,1.26,8.13,4.14t2.18,10.55q0,7.5-3.51,18.91a94.67,94.67,0,0,1-9.61,21.4l2.81,2.82h2.34a11.42,11.42,0,0,0,5.24-1.33,35.63,35.63,0,0,0,4.61-2.81Q564.1,922,571,916.88Zm-32.18-41.1q-13,7.82-22.19,14.14A107.22,107.22,0,0,0,501,902.73q-6.41,6.49-8.59,13-3.9,17.51-3.91,18.91,0,10.3,14.38,10.31,6.72,0,22.5-11.56a41.34,41.34,0,0,1-2.66-14.06,54.13,54.13,0,0,1,4.07-20.08A164.8,164.8,0,0,1,538.8,875.78Z"/><path class="a" d="M642.08,938.59q21.55-19.05,37-33.2t24.3-22.27Q712.23,875,719,869.38t8.6-5.63q3.59-.15,6.87,7.42t3.28,12.11q0,3-9.92,14t-14.84,17.57A22.61,22.61,0,0,0,708,928.59a8.76,8.76,0,0,0,2.81,6.8,9.58,9.58,0,0,0,6.72,2.58q4.53,0,10.86-4.69t19.92-16.72v11.1q-13.59,12.81-24.69,22.11a133.06,133.06,0,0,1-19.3,13.9q-8.19,4.61-13.67,4.61a10.43,10.43,0,0,1-8.12-3.67,13.19,13.19,0,0,1-3.28-9.14,33.07,33.07,0,0,1,1.87-10.78,97.58,97.58,0,0,1,5.78-13q3.9-7.5,10.31-18.05L709,894.38q-15.93,13-28.28,25t-20.15,21q-7.82,9-12.35,14.14-8.74,9.69-16.25,9.69-8.13,0-8.12-11.56,0-4.7,6.09-16.8T647.23,905a6.49,6.49,0,0,0,.94-3.91q0-3.12-3.12-3.12-3.45,0-9.92,6.48t-25.08,27.11a163.66,163.66,0,0,0-11.64,15.08,152,152,0,0,1-9.3,12.42c-1.88,2.09-3.75,3.13-5.63,3.13q-5.62,0-10.46-10t-4.85-23.28a40,40,0,0,1,3.21-16.72,145.54,145.54,0,0,1,9.92-17.5q10.46-15.16,17.11-21.64t14-6.49a15.15,15.15,0,0,1,7.66,1.8,5.49,5.49,0,0,1,3.12,4.92q0,3.29-5.7,10.78A117.3,117.3,0,0,1,603,899.53a60.67,60.67,0,0,0-8.91,11.17q-4.22,6.64-4.22,9.61,0,4.22,3.28,4.22,2.66,0,13.44-10.94t23.67-23.82a255,255,0,0,1,23.91-21.41q11-8.52,18.67-8.52a9.8,9.8,0,0,1,7.73,3.52,12.72,12.72,0,0,1,3,8.67q0,3.44-4.69,12.42a230.75,230.75,0,0,1-13.67,22.19Q656.3,919.84,642.08,938.59Z"/><path class="a" d="M847.7,916.88v10.46q-10.31,9.38-16.56,12.5t-18,2.5q-20.31,24.07-35.78,24.07a24.81,24.81,0,0,1-15.94-5.79A40,40,0,0,1,750,944.84a55.91,55.91,0,0,1-4.3-22.34q0-10,6.64-22.19a99.6,99.6,0,0,1,17.19-22.73,97.08,97.08,0,0,1,22.58-17q12-6.48,22.34-6.49,7.35,0,11.56,2.27c2.82,1.51,4.22,3.62,4.22,6.33,0,2.08-1.2,4.48-3.59,7.18q5.94,1.26,8.12,4.14t2.19,10.55q0,7.5-3.51,18.91a94.67,94.67,0,0,1-9.61,21.4l2.81,2.82H829a11.42,11.42,0,0,0,5.24-1.33,35.63,35.63,0,0,0,4.61-2.81Q840.83,922,847.7,916.88Zm-32.18-41.1q-13,7.82-22.19,14.14a107.22,107.22,0,0,0-15.63,12.81q-6.41,6.49-8.59,13-3.92,17.51-3.91,18.91,0,10.3,14.38,10.31,6.72,0,22.5-11.56a41.34,41.34,0,0,1-2.66-14.06,54.11,54.11,0,0,1,4.06-20.08A166,166,0,0,1,815.52,875.78Z"/></svg>