<svg xmlns="http://www.w3.org/2000/svg" viewBox="0 0 700 666.71"><defs><style>.cls-1{fill:#24cc24;}.cls-2{fill:#4ad44a;}.cls-3{fill:#009400;}.cls-4{fill:#00b900;}.cls-5{fill:#007300;}.cls-6{font-size:320px;fill:#444955;font-family:BrushScriptMT, Brush Script MT;font-style:italic;}</style></defs><title>krm</title><g id="krm"><polygon class="cls-1" points="361.9 239.8 691.95 239.8 361.9 0 361.9 239.8"/><polygon class="cls-2" points="339.52 239.8 339.52 0 9.46 239.8 339.52 239.8"/><polygon class="cls-3" points="368.97 262.18 449.74 420.7 667.93 262.18 368.97 262.18"/><polygon class="cls-4" points="461.27 492.64 346.68 267.75 224.18 356.75 224.18 664.9 461.27 492.64"/><polygon class="cls-1" points="201.79 666.71 201.79 373.01 67.67 470.46 131.44 666.71 201.79 666.71"/><polygon class="cls-2" points="0 262.18 60.4 448.07 316.26 262.18 0 262.18"/><path class="cls-5" d="M460,440.9,570.68,658.06a11,11,0,0,1,1.06,3.23L700,266.55Z"/><polygon class="cls-5" points="471.56 512.83 259.77 666.71 549.97 666.71 471.56 512.83"/></g><g id="color"><text class="cls-6" transform="translate(157.55 -107.59)">koromo</text></g></svg>