<svg xmlns="http://www.w3.org/2000/svg" viewBox="0 0 700 700"><title>krm-vue</title><polygon points="361.79 237.52 688.71 237.52 361.79 0 361.79 237.52" style="fill:#ddd"/><polygon points="339.62 237.52 339.62 0 12.7 237.52 339.62 237.52" style="fill:#eee"/><polygon points="368.79 259.69 448.79 416.71 664.91 259.69 368.79 259.69" style="fill:#bbb"/><polygon points="460.22 487.96 346.71 265.2 225.37 353.36 225.37 658.59 460.22 487.96" style="fill:#ccc"/><polygon points="203.2 660.38 203.2 369.47 70.35 465.99 133.51 660.38 203.2 660.38" style="fill:#ddd"/><polygon points="3.32 259.69 63.15 443.82 316.58 259.69 3.32 259.69" style="fill:#eee"/><path d="M459,436.71l109.6,215.1a10.83,10.83,0,0,1,1,3.2l127-391Z" style="fill:#aaa"/><polygon points="470.41 507.96 260.62 660.38 548.07 660.38 470.41 507.96" style="fill:#aaa"/><path d="M424.41,142,350,270.82,275.59,142H27.8L350,700,672.2,142Z" style="fill:#4dba87"/><path d="M424.41,142,350,270.82,275.59,142H156.68L350,476.78,543.32,142Z" style="fill:#435466"/></svg>