<svg xmlns="http://www.w3.org/2000/svg" viewBox="0 0 51.02 51.02"><defs><style>.a{fill:#fff;}</style></defs><title>at</title><path class="a" d="M25.51,0a25.51,25.51,0,1,0,7.93,49.77L35,49.23a1,1,0,0,0,.67-1.29l-1.46-4.49a1,1,0,0,0-1.29-.66l-1.53.54A18.75,18.75,0,1,1,44.25,25.51a20,20,0,0,1-1.18,6.57c-.57,1.64-1.9,3-3,3a2.62,2.62,0,0,1-2.62-2.62v-18a1,1,0,0,0-1-1H31.75a1,1,0,0,0-1,1l0,.4-.35-.19A12.46,12.46,0,1,0,31.13,36l.25-.16.11.28a9.4,9.4,0,0,0,8.63,5.68c4,0,7.77-3,9.34-7.5A26.64,26.64,0,0,0,51,25.51,25.53,25.53,0,0,0,25.51,0Zm5.13,25.51a6.16,6.16,0,1,1-6.16-6.15A6.16,6.16,0,0,1,30.64,25.51Z"/></svg>