<?xml version="1.0" encoding="utf-8"?>
<!-- Generator: Adobe Illustrator 22.1.0, SVG Export Plug-In . SVG Version: 6.00 Build 0)  -->
<svg version="1.1" id="Layer_1" xmlns="http://www.w3.org/2000/svg" xmlns:xlink="http://www.w3.org/1999/xlink" x="0px" y="0px"
	 viewBox="0 0 510 510" style="enable-background:new 0 0 510 510;" xml:space="preserve">
<style type="text/css">
	.st0{fill:#FFFFFF;}
</style>
<g>
	<g>
		<path class="st0" d="M299.5,283.8h-60.2V174.5c0-3.4-2.8-6.1-6.2-6.1H211c-3.4,0-6.2,2.8-6.2,6.1v137.6l0,0c0,1.7,0.7,3.1,1.7,4.3
			l0.1,0.1l0.1,0.1c1.1,1.1,2.6,1.7,4.3,1.7l0,0h88.5c3.4,0,6.1-2.8,6.1-6.2V290C305.6,286.6,302.9,283.8,299.5,283.8z"/>
	</g>
	<g>
		<path class="st0" d="M255.4,111.5c9.4,0,19,0.3,28.4,1c40.5,2.9,69.3,9.1,87.8,14.5c5.6,1.6,9.5,6.8,9.5,12.7l0,154
			c0,37.7-34.6,68.8-63.5,88.2c-21.2,14.2-42.9,24.6-56.9,30.6c-3.3,1.4-7.1,1.4-10.4,0c-35.6-15.4-120.6-58.4-120.6-118.7l0-154
			c0-5.8,3.9-11,9.5-12.6c18.5-5.4,47.3-11.6,87.8-14.5C236.4,111.8,245.9,111.5,255.4,111.5 M255.4,81c-10.2,0-20.3,0.4-30.4,1.1
			c-60.6,4.3-97.3,15.7-114.3,22.5c-6.9,2.7-11.4,9.4-11.4,16.8v171.9c0,87.6,120.1,139.8,149.7,151.3c4.2,1.6,8.9,1.6,13.1,0
			c29.6-11.5,149.7-63.7,149.7-151.3V121.4c0-7.4-4.5-14.1-11.4-16.8c-17-6.7-53.7-18.2-114.4-22.5C275.7,81.4,265.5,81,255.4,81
			L255.4,81z"/>
		<path class="st0" d="M299.6,283.8h-60.2V174.5c0-3.4-2.8-6.1-6.2-6.1h-22.2c-3.4,0-6.2,2.8-6.2,6.1v137.6v0c0,1.7,0.7,3.1,1.7,4.3
			c0,0,0.1,0.1,0.1,0.1c0,0,0.1,0.1,0.1,0.1c1.1,1.1,2.6,1.7,4.3,1.7h0h88.5c3.4,0,6.1-2.8,6.1-6.2V290
			C305.8,286.6,303,283.8,299.6,283.8z"/>
	</g>
</g>
</svg>
