<svg xmlns="http://www.w3.org/2000/svg" xmlns:xlink="http://www.w3.org/1999/xlink" viewBox="0 0 200 200"><defs><style>.cls-1{isolation:isolate;}.cls-2{fill:#6a5af9;}.cls-3{fill:#f3bc8c;fill-rule:evenodd;}.cls-4{fill:#f2cb9e;}.cls-5{fill:#6b4132;}.cls-6{fill:none;stroke:#4c2b32;stroke-linecap:round;stroke-miterlimit:10;stroke-width:0.7px;}.cls-7{fill:#333;}.cls-8{mix-blend-mode:multiply;fill:url(#linear-gradient);}.cls-9{fill:#e5c147;}</style><linearGradient id="linear-gradient" x1="100.12" y1="146.38" x2="100.12" y2="96.46" gradientUnits="userSpaceOnUse"><stop offset="0" stop-color="#fff6e9"/><stop offset="1" stop-color="#e98f00"/></linearGradient></defs><title>david</title><g class="cls-1"><g id="レイヤー_1" data-name="レイヤー 1"><rect class="cls-2" width="200" height="200"/><path class="cls-3" d="M133.46,79.66h4.95c5.46,0,8.82,1.88,8.82,9.06s-7.34,15.94-12.8,15.94l-5.56,1c-5.46,0-5.3-5.83-5.3-13S128,79.66,133.46,79.66Z"/><path class="cls-3" d="M69.12,79.7H64.19c-5.44,0-8.79,1.87-8.79,9s7.32,15.9,12.76,15.9l5.54,1c5.45,0,5.29-5.81,5.29-13S74.57,79.7,69.12,79.7Z"/><path class="cls-4" d="M170.4,186.32c-2.57-8.65-5.14-13.21-13.39-16.25-9-4.66-23.94-11.77-32.29-15.78-10.47-5.25-9.68-15.57-9.86-18.36s2.79-8.72,11.54-17c8.85-12,9.51-27.43,10.46-42.59.68-10.89.85-24.74-4.87-34.23s-18.64-14-29.83-14.08h-.25c-11.18.07-24.69,4.59-30.42,14.08s-5.55,23.34-4.87,34.23c1,15.16,1.91,30.58,10.76,42.59,9.29,8.31,9.67,14.61,9.49,17.33s-.2,14.43-8.6,18.06C69.71,158,53,168,44,171.24c-8.25,3-11.6,7.81-14.17,16.45"/><ellipse class="cls-5" cx="84.14" cy="81.22" rx="2.75" ry="2.99"/><ellipse class="cls-5" cx="117.13" cy="81.22" rx="2.75" ry="2.99"/><line class="cls-6" x1="92.53" y1="113.62" x2="108.14" y2="113.62"/><path class="cls-7" d="M136.1,84c.41-4.24,1.28-4.68,1.55-9,.68-10.88-.19-24.36-5.9-33.85s-18.65-14-29.83-14.08h-.26C90.48,27.17,77,31.69,71.25,41.18s-5.56,23.34-4.87,34.23c.19,3,.38,6,.63,9,1.78-12.08,5.52-23.17,6.93-32.07l54.81-1.72S133.12,73.31,136.1,84Z"/><path class="cls-8" d="M155.31,169.59c-8.69-4.52-23.22-11.42-31.33-15.31-10.15-5.09-9.39-15.11-9.56-17.81-.13-2,1.51-5.85,6-11.13-5.57,4.64-13,10.11-19.75,10.11s-12-5.5-17.65-10.2c4.15,5.42,4.35,9.48,4.22,11.51-.17,2.7-.2,14-8.35,17.52-8.31,3.58-24.55,13.26-33.24,16.45-8,3-11.26,7.57-13.75,16l136.37-1.33C165.81,177,163.32,172.54,155.31,169.59Z"/><path class="cls-9" d="M174.12,240.17c1.79-2,1-39.33-3.56-54.4-2.6-8.65-5.19-13.22-13.54-16.26-6.46-3.33-16-7.89-24-11.7-8,3.7-19.52,6-32.36,6-12.62,0-24-2.26-31.95-5.85-8.67,4.46-19.29,10.32-25.83,12.69-8.34,3-11.72,7.8-14.32,16.45-4.7,15.63-3.74,51.11-2.52,52.52"/></g></g></svg>