<svg xmlns="http://www.w3.org/2000/svg" xmlns:xlink="http://www.w3.org/1999/xlink" viewBox="0 0 200 200"><defs><style>.cls-1{isolation:isolate;}.cls-2{fill:#6ee4d4;}.cls-3,.cls-6{fill:#7c4912;}.cls-4{fill:#f3bc8c;}.cls-4,.cls-6,.cls-9{fill-rule:evenodd;}.cls-5{fill:#f2cb9e;}.cls-7{fill:#e3dddc;}.cls-8{fill:#6b4132;}.cls-9{fill:none;stroke:#d11c32;stroke-miterlimit:10;stroke-width:0.66px;}.cls-10{fill:#94a7b7;}.cls-11{fill:#5b7c44;}.cls-12{opacity:0.41;mix-blend-mode:multiply;fill:url(#linear-gradient);}</style><linearGradient id="linear-gradient" x1="101.58" y1="157.78" x2="101.58" y2="138.25" gradientUnits="userSpaceOnUse"><stop offset="0.18" stop-color="#fff6e9"/><stop offset="1" stop-color="#e98f00"/></linearGradient></defs><title>linda</title><g class="cls-1"><g id="レイヤー_1" data-name="レイヤー 1"><rect class="cls-2" width="200" height="200"/><path class="cls-3" d="M42.14,189.13S56.93,131.52,57.9,94l87.46,14.18s.25,59.83,13.28,77.62Z"/><path class="cls-4" d="M136.24,94.61h5c5.48,0,8.86,1.88,8.86,9.09s-7.37,16-12.86,16l-5.58,1c-5.49,0-5.32-5.85-5.32-13.07S130.75,94.61,136.24,94.61Z"/><path class="cls-4" d="M65.07,97.14H60.12c-5.47,0-8.83,1.88-8.83,9.07s7.35,16,12.82,16l5.56,1c5.47,0,5.31-5.84,5.31-13S70.54,97.14,65.07,97.14Z"/><path class="cls-5" d="M170.18,202c-2.58-8.68-5.16-13.27-13.45-16.32-9-4.68-24-11.82-32.42-15.84-10.52-5.28-9.72-15.64-9.9-18.44s2.8-8.76,11.59-17.11c8.89-12,9.55-27.54,10.5-42.77.69-10.93.85-24.84-4.89-34.37s-18.72-14.07-30-14.14h-.26c-11.23.07-24.8,4.61-30.54,14.14S65.28,80.59,66,91.52c1,15.23,1.91,30.72,10.8,42.77,9.32,8.35,9.71,14.67,9.53,17.4s-.21,14.5-8.64,18.15c-8.6,3.7-25.41,13.72-34.4,17C35,189.91,31.6,194.7,29,203.38"/><path class="cls-6" d="M67.1,105.76c16.46-40.28,52.35-47.68,52.35-47.68C133,91.3,143.81,94.63,145.36,94.94V79.81a43.73,43.73,0,0,0-87.46,0V100Z"/><path class="cls-7" d="M173.87,260.47c1.77-2.06.94-43.33-3.55-58.47-2.58-8.68-5.16-13.27-13.45-16.32-6.43-3.34-15.92-7.93-23.89-11.75-8,3.72-19.4,6.06-32.16,6.06-12.54,0-23.81-2.26-31.76-5.88-8.61,4.49-19.17,10.37-25.66,12.75-8.29,3-11.66,7.84-14.24,16.52-4.66,15.7-3.71,55.16-2.51,56.57"/><ellipse class="cls-8" cx="83.56" cy="104.67" rx="2.76" ry="3"/><ellipse class="cls-8" cx="116.69" cy="104.67" rx="2.76" ry="3"/><path class="cls-9" d="M89.3,130.77s10.26,7.49,21.69,0"/><path class="cls-10" d="M170.56,201.57c-2.6-8.74-5.19-13.36-13.54-16.43-5.51-2.87-13.27-6.65-20.41-10.08v85.2l37.51.13C175.91,258.33,175.08,216.79,170.56,201.57Z"/><path class="cls-10" d="M62.76,176.62c-7.21,3.82-14.81,7.84-19.92,9.71C34.5,189.4,31.12,194.22,28.52,203c-4.7,15.8-3.74,55.51-2.52,56.92l36.76.13Z"/><path class="cls-6" d="M132.61,76.34s2.73,24.85,2.6,32.89l3-14.34,7.36.09Z"/><path class="cls-6" d="M62.76,102.52s3.63,9.64,5.45,10.64l-1.63-12.57Z"/><path class="cls-11" d="M57.9,92.61s48.55-21,87.65,2.37c-.63,4.5,8-34.3-19.24-53.66-9.29-6.61-13.19-19.23-14.44-26.86-.88-5.38-2.72-7-7.17-8.57C103,5.27,97,5.56,95.26,5.61c-4.47.13-20,1.88-21,7.76-1.58,9.54.49,18.47-2.43,24.05s-12.54,20.67-14,28.76S57.9,92.61,57.9,92.61Z"/><path class="cls-12" d="M117.55,163.55c-2-2.82-2.89-8.39-3-11.08-.13-2,1.38-6.8,5.88-12.05-5.55,4.62-12.27,10.59-19,10.59s-13-5.91-18.62-10.59a18.12,18.12,0,0,1,3.76,12.67c-.17,2.69-1.07,8.94-3,11.37"/></g></g></svg>