<svg id="レイヤー_1" data-name="レイヤー 1" xmlns="http://www.w3.org/2000/svg" viewBox="0 0 200 200"><defs><style>.cls-1{fill:#ef8f9f;}.cls-2,.cls-5{fill:#7c4912;}.cls-3{fill:#f3bc8c;}.cls-3,.cls-5,.cls-7{fill-rule:evenodd;}.cls-4{fill:#f2cb9e;}.cls-6{fill:#6b4132;}.cls-7{fill:none;stroke:#d11c32;stroke-linecap:round;stroke-linejoin:round;stroke-width:0.63px;}</style></defs><title>mary</title><rect class="cls-1" width="200" height="200"/><path class="cls-2" d="M41.58,177.53s14.88-58,15.85-95.73l88,14.27s-8.38,59.37,4.73,77.28Z"/><path class="cls-3" d="M136.26,82.7h5c5.52,0,8.91,1.9,8.91,9.16S142.76,108,137.24,108l-5.62,1c-5.52,0-5.35-5.89-5.35-13.15S130.74,82.7,136.26,82.7Z"/><path class="cls-4" d="M170.41,190.48c-2.59-8.74-5.19-13.35-13.53-16.42-9-4.71-24.18-11.89-32.63-15.95-10.57-5.3-9.78-15.73-10-18.55s2.67-8.53,11-16.63a8.79,8.79,0,0,0,1.1-1.26c8.48-12,9.13-27.32,10.08-42.36.69-11,.85-25-4.92-34.58S112.76,30.57,101.46,30.5h-.25c-11.3.07-25,4.64-30.74,14.23s-5.61,23.58-4.92,34.58c1,15.1,1.9,30.45,10.49,42.5a6.36,6.36,0,0,0,.88,1c8.9,8.18,9.27,14.36,9.09,17.06s-.21,14.58-8.69,18.25c-8.65,3.73-25.57,13.82-34.62,17.14-8.34,3.07-11.73,7.88-14.32,16.62"/><path class="cls-5" d="M66.7,93.64c8.59-4.64,52.67-48,52.67-48,12.38,46.13,24.4,38.62,26.07,37.3V67.53a44,44,0,0,0-88,0v20.3Z"/><path d="M174.12,249.31c1.79-2.07,1-43.6-3.56-58.83-2.6-8.74-5.19-13.35-13.54-16.42-6.46-3.37-16-8-24-11.83-8,3.74-19.52,6.11-32.36,6.11-12.62,0-24-2.29-31.95-5.92-8.67,4.51-19.29,10.43-25.83,12.83-8.34,3.07-11.72,7.88-14.32,16.62-4.7,15.79-3.74,55.5-2.52,56.92"/><ellipse class="cls-6" cx="83.25" cy="92.54" rx="2.78" ry="3.02"/><ellipse class="cls-6" cx="116.59" cy="92.54" rx="2.78" ry="3.02"/><path class="cls-7" d="M89,118.8s10.32,7.54,21.83,0"/></svg>