<svg xmlns="http://www.w3.org/2000/svg" xmlns:xlink="http://www.w3.org/1999/xlink" viewBox="0 0 200 200"><defs><style>.cls-1{isolation:isolate;}.cls-2{fill:#ff8a5a;}.cls-3{fill:#f3bc8c;}.cls-3,.cls-5,.cls-8{fill-rule:evenodd;}.cls-4{fill:#f2cb9e;}.cls-5{fill:#7c4912;}.cls-6{fill:#ffc06c;}.cls-7{fill:#6b4132;}.cls-8{fill:none;stroke:#a13b36;stroke-miterlimit:10;stroke-width:0.66px;}.cls-9{fill:#7a4b13;}.cls-10{opacity:0.41;mix-blend-mode:multiply;fill:url(#linear-gradient);}</style><linearGradient id="linear-gradient" x1="101.08" y1="159.93" x2="101.08" y2="140.28" gradientUnits="userSpaceOnUse"><stop offset="0.18" stop-color="#fff6e9"/><stop offset="1" stop-color="#e98f00"/></linearGradient></defs><title>nancy</title><g class="cls-1"><g id="レイヤー_1" data-name="レイヤー 1"><rect class="cls-2" width="200" height="200"/><path class="cls-3" d="M136.26,95.45h5c5.52,0,8.91,1.89,8.91,9.15s-7.41,16.11-12.93,16.11l-5.62,1c-5.52,0-5.35-5.88-5.35-13.15S130.74,95.45,136.26,95.45Z"/><path class="cls-3" d="M64.91,95.49h-5c-5.5,0-8.88,1.88-8.88,9.12s7.39,16.06,12.89,16.06l5.6,1c5.51,0,5.34-5.87,5.34-13.11S70.41,95.49,64.91,95.49Z"/><path class="cls-4" d="M170.41,203.22c-2.59-8.73-5.19-13.35-13.53-16.42-9-4.71-24.18-11.89-32.63-15.94-10.57-5.31-9.78-15.74-10-18.55s2.81-8.82,11.66-17.22c8.94-12.13,9.61-27.71,10.57-43,.69-11,.85-25-4.92-34.59s-18.85-14.16-30.15-14.22h-.25c-11.3.06-25,4.63-30.74,14.22s-5.61,23.59-4.92,34.59c.88,14.08,1.77,28.37,8.84,40a43.09,43.09,0,0,0,4.67,6.21c8.08,7.78,7.12,11.72,7,14.33-.17,2.82-.21,14.59-8.69,18.26C68.67,174.58,51.75,184.67,42.7,188c-8.34,3.07-11.73,7.88-14.32,16.62"/><path class="cls-5" d="M64.57,95.73c7.93-8.32,18-28.94,18-28.94,14.57,16.82,35.91,24.87,48.33,27.75,7.35,1.7,10.32.91,10.32.91v-15c.56-25.07-15.52-44.13-39.82-44.13a44,44,0,0,0-44,44V95.73Z"/><path class="cls-6" d="M174.12,262.05c1.79-2.07,1-43.6-3.56-58.83-2.6-8.73-5.19-13.35-13.54-16.42-6.46-3.36-16-8-24-11.83-8,3.75-19.52,6.11-32.36,6.11-12.62,0-24-2.28-31.95-5.92C60,179.67,49.38,185.59,42.84,188c-8.34,3.07-11.72,7.88-14.32,16.62-4.7,15.79-3.74,55.5-2.52,56.92"/><ellipse class="cls-7" cx="83.25" cy="103.36" rx="2.78" ry="3.02"/><ellipse class="cls-7" cx="116.59" cy="103.36" rx="2.78" ry="3.02"/><path class="cls-8" d="M90.61,128s7.33,12.61,21.09,0"/><ellipse class="cls-9" cx="89.25" cy="25.97" rx="19.76" ry="17.52"/><path class="cls-10" d="M117.14,164.77c-2-2.84-2.57-8.48-2.8-11.18-.29-3.37,1.12-6.81,5.65-12.09-5.58,4.65-12.35,10.66-19.09,10.66s-13.13-6-18.73-10.66c5.38,6.51,3.91,10.73,3.78,12.75-.17,2.71-1.08,9-3,11.43"/></g></g></svg>