<svg xmlns="http://www.w3.org/2000/svg" viewBox="0 0 500 500"><title>play-circle</title><path d="M250,492.5A242.5,242.5,0,0,1,78.526,78.526,242.5,242.5,0,0,1,421.474,421.474,240.92,240.92,0,0,1,250,492.5Z" style="fill:#fff"/><path d="M250,15a235.066,235.066,0,0,1,91.468,451.539A235.065,235.065,0,0,1,158.532,33.461,233.515,233.515,0,0,1,250,15m0-15C111.929,0,0,111.929,0,250S111.929,500,250,500,500,388.071,500,250,388.071,0,250,0Z" style="fill:#aaa"/><path d="M359.581,246.114a18.792,18.792,0,0,0-8.713-12.082L189.536,137.5a19.815,19.815,0,0,0-10.2-2.806A19.065,19.065,0,0,0,160,153.412V346.563a18.389,18.389,0,0,0,3.182,10.284,19.51,19.51,0,0,0,16.11,8.458,20,20,0,0,0,10.257-2.847L350.788,265.89a19.459,19.459,0,0,0,5.987-5.612A18.055,18.055,0,0,0,359.581,246.114Z" style="fill:#464f69"/></svg>