<svg xmlns="http://www.w3.org/2000/svg" xmlns:xlink="http://www.w3.org/1999/xlink" viewBox="0 0 200 200"><defs><style>.cls-1{isolation:isolate;}.cls-2{fill:#6ab4f8;}.cls-3{fill:#f3bc8c;}.cls-3,.cls-7{fill-rule:evenodd;}.cls-4{fill:#f2cb9e;}.cls-5{fill:#eff2f4;}.cls-6{fill:#6b4132;}.cls-7{fill:#4c2b32;}.cls-8{fill:none;stroke:#4c2b32;stroke-miterlimit:10;stroke-width:0.7px;}.cls-9{fill:#4469d3;}.cls-10{opacity:0.41;mix-blend-mode:multiply;fill:url(#linear-gradient);}</style><linearGradient id="linear-gradient" x1="101.1" y1="148.78" x2="101.1" y2="129.08" gradientUnits="userSpaceOnUse"><stop offset="0.18" stop-color="#fff6e9"/><stop offset="1" stop-color="#e98f00"/></linearGradient></defs><title>james</title><g class="cls-1"><g id="レイヤー_1" data-name="レイヤー 1"><rect class="cls-2" width="200" height="200"/><path class="cls-3" d="M133.09,85.41h5c5.52,0,8.91,1.89,8.91,9.16s-7.41,16.1-12.93,16.1l-5.62,1c-5.52,0-5.35-5.89-5.35-13.15S127.57,85.41,133.09,85.41Z"/><path class="cls-3" d="M68.08,85.45h-5c-5.5,0-8.88,1.89-8.88,9.13s7.39,16.06,12.9,16.06l5.6,1c5.5,0,5.33-5.87,5.33-13.11S73.58,85.45,68.08,85.45Z"/><path class="cls-4" d="M170.41,193.19c-2.59-8.74-5.19-13.35-13.53-16.42-9-4.71-24.18-11.89-32.63-16-10.57-5.3-9.78-15.73-10-18.55s2.81-8.81,11.66-17.21c8.94-12.13,9.61-27.71,10.57-43,.69-11,.85-25-4.92-34.58s-18.85-14.16-30.15-14.23h-.25c-11.3.07-25,4.64-30.74,14.23S64.86,71,65.55,82c.93,14.87,1.87,30,10.09,41.94a13.63,13.63,0,0,0,1.78,2c8.41,7.94,8.76,13.94,8.59,16.59-.17,2.81-.21,14.58-8.69,18.25C68.67,164.55,51.75,174.64,42.7,178,34.36,181,31,185.84,28.38,194.58"/><path class="cls-5" d="M174.12,248.16c1.79-2.07,1-39.74-3.56-55-2.6-8.74-5.19-13.35-13.54-16.42-6.46-3.37-31.79-18.32-39.81-22.17-5.06,4.92-17.81,12.11-17.81,12.11-7.09-3.48-16.89-11.6-16.89-11.6-8.66,4.51-33.13,20.45-39.67,22.85-8.34,3.07-11.72,7.88-14.32,16.62-4.7,15.79-3.74,51.65-2.52,53.06"/><ellipse class="cls-6" cx="83.25" cy="86.98" rx="2.78" ry="3.02"/><ellipse class="cls-6" cx="116.59" cy="86.98" rx="2.78" ry="3.02"/><path class="cls-7" d="M66.13,93.33A120.18,120.18,0,0,1,62.84,66.5c-.23-18,2.17-23,9.32-31.25A40,40,0,0,1,78,31.09s3.6-3.07,16.1-3.63c11.57-.52,34.61,1.5,39.65,13.69s5.26,41.81,1.9,52.76c0,0-.64-31.16-10-45.95,0,0-44.2-3.69-55.11,2.67,0,0-1.49,13.76-2.14,17.82,0,0-4.06,15.28-2.11,23.24"/><path class="cls-8" d="M89.45,116.35a26,26,0,0,0,24.36,0"/><polygon class="cls-9" points="99.4 169.46 92.67 175.05 97.44 182.2 88.69 248.85 111.31 248.85 101.63 182.54 105.6 174.03 99.4 169.46"/><path class="cls-10" d="M117.21,154.6c-2-2.84-2.91-8.47-3.08-11.18-.13-2,1.4-6.86,5.93-12.15-5.59,4.66-12.38,10.69-19.13,10.69s-13.17-6-18.79-10.69a18.31,18.31,0,0,1,3.79,12.78c-.17,2.72-1.08,9-3,11.47"/></g></g></svg>