<svg xmlns="http://www.w3.org/2000/svg" xmlns:xlink="http://www.w3.org/1999/xlink" viewBox="0 0 200 200"><defs><style>.cls-1{isolation:isolate;}.cls-2{fill:#68ce71;}.cls-3{fill:#f3bc8c;}.cls-3,.cls-6{fill-rule:evenodd;}.cls-4{fill:#f2cb9e;}.cls-5{fill:#6b4132;}.cls-6,.cls-7{fill:#4c2b32;}.cls-8{fill:none;stroke:#4c2b32;stroke-linecap:round;stroke-linejoin:round;stroke-width:0.63px;}.cls-9{mix-blend-mode:multiply;fill:url(#linear-gradient);}.cls-10{fill:#5b7c44;}</style><linearGradient id="linear-gradient" x1="100.04" y1="153.1" x2="100.04" y2="102.72" gradientUnits="userSpaceOnUse"><stop offset="0" stop-color="#fff6e9"/><stop offset="1" stop-color="#e98f00"/></linearGradient></defs><title>michael</title><g class="cls-1"><g id="レイヤー_1" data-name="レイヤー 1"><rect class="cls-2" width="200" height="200"/><path class="cls-3" d="M133.29,86.77h4.93c5.44,0,8.79,1.87,8.79,9s-7.32,15.89-12.76,15.89l-5.54,1c-5.45,0-5.29-5.81-5.29-13S127.84,86.77,133.29,86.77Z"/><path class="cls-3" d="M69.14,86.81H64.23c-5.43,0-8.77,1.86-8.77,9s7.29,15.84,12.72,15.84l5.53,1c5.43,0,5.27-5.79,5.27-12.93S74.57,86.81,69.14,86.81Z"/><path class="cls-4" d="M170.11,193.1c-2.56-8.62-5.12-13.17-13.35-16.2-8.93-4.64-23.87-11.73-32.19-15.73-10.44-5.23-9.65-15.52-9.83-18.3s2.78-8.69,11.51-17c8.82-12,9.48-27.34,10.42-42.46.68-10.85.85-24.66-4.85-34.12s-18.59-14-29.74-14h-.25c-11.15.07-24.62,4.58-30.32,14S66,72.58,66.65,83.43c.95,15.12,1.91,30.49,10.73,42.46,9.25,8.29,9.63,14.56,9.46,17.27s-.21,14.39-8.58,18c-8.54,3.68-25.22,13.63-34.15,16.9-8.23,3-11.57,7.78-14.13,16.4"/><ellipse class="cls-5" cx="84.12" cy="88.32" rx="2.74" ry="2.98"/><ellipse class="cls-5" cx="117" cy="88.32" rx="2.74" ry="2.98"/><path class="cls-6" d="M67.22,94.58A119.2,119.2,0,0,1,64,68.12c-.22-17.8.74-23.09,7.79-31.27,0,0-4.16-.8-5.61-6.57a53.91,53.91,0,0,0,20.71,0C98.06,28,129,31.08,134,43.11s5.19,41.24,1.87,52c0,0-4.76-31.62-9.41-39.86,0,0-42.32-3.37-50.35-3.37,0,0-5.93,14.11-6.57,18.12,0,0-4,15.07-2.08,22.93"/><path class="cls-6" d="M94.86,37.29S83.07,33.28,84.12,24c0,0,13.75,4.9,21.71,6.23"/><path class="cls-7" d="M115.12,37.07s-6.42-3.19-5.93-16.5c0,0,12.66,13.44,19.46,16.5"/><path class="cls-7" d="M65.79,46.63A16.52,16.52,0,0,0,59,60s3.5-6.65,8.18-5.54"/><path class="cls-7" d="M76.32,51.89A35.45,35.45,0,0,0,94.94,60a51.13,51.13,0,0,1-9.31-10.53"/><path class="cls-7" d="M90.23,50.66s20.67,13.2,33.19,15.51c0,0-9.56-8.25-9.16-15.51"/><path class="cls-7" d="M103.15,50.66s20.67,13.2,33.19,15.51c0,0-9.56-8.25-9.16-15.51"/><path class="cls-7" d="M110.65,52.29s20.67,13.2,33.2,15.51c0,0-9.57-8.25-9.16-15.51"/><path class="cls-8" d="M90.23,117.3a25.63,25.63,0,0,0,24,0"/><path class="cls-9" d="M155.74,176.53C147,172,132.31,165,124.13,161.08c-10.25-5.14-9.48-15.25-9.65-18-.13-2,1.52-5.9,6.08-11.23-5.62,4.68-13.14,10.21-19.93,10.21s-12.17-5.56-17.82-10.3c4.19,5.47,4.39,9.57,4.26,11.61-.17,2.73-.2,14.13-8.42,17.69-8.38,3.61-24.77,13.38-33.54,16.6-8.09,3-11.37,7.64-13.88,16.11l137.63-1.35C166.34,184,163.83,179.5,155.74,176.53Z"/><path class="cls-10" d="M174.12,247.81c1.79-2.07,1-39.75-3.56-55-2.6-8.74-5.19-13.35-13.54-16.43-6.46-3.36-16-8-24-11.82-8,3.74-19.52,6.1-32.36,6.1-12.62,0-24-2.28-31.95-5.91-9.85,5-19.79,10.64-25.83,12.82-8.36,3-11.72,7.89-14.32,16.62-4.7,15.8-3.74,51.65-2.52,53.07"/></g></g></svg>