<svg xmlns="http://www.w3.org/2000/svg" xmlns:xlink="http://www.w3.org/1999/xlink" viewBox="0 0 200 200"><defs><style>.cls-1{isolation:isolate;}.cls-2{fill:#979ba5;}.cls-3{fill:#a13b36;}.cls-3,.cls-4,.cls-8{fill-rule:evenodd;}.cls-4{fill:#f3bc8c;}.cls-5{fill:#f2cb9e;}.cls-6{fill:#fff;}.cls-7{fill:#6b4132;}.cls-8{fill:#4c2b32;}.cls-9{fill:none;stroke:#4c2b32;stroke-miterlimit:10;stroke-width:0.62px;}.cls-10{fill:#bf4542;}.cls-11{mix-blend-mode:multiply;fill:url(#linear-gradient);}</style><linearGradient id="linear-gradient" x1="99.34" y1="151.81" x2="99.34" y2="99.88" gradientUnits="userSpaceOnUse"><stop offset="0" stop-color="#fff6e9"/><stop offset="1" stop-color="#e98f00"/></linearGradient></defs><title>robert</title><g class="cls-1"><g id="レイヤー_1" data-name="レイヤー 1"><rect class="cls-2" width="200" height="200"/><path class="cls-3" d="M89.26,117h24.48S99.25,130.18,89.26,117Z"/><path class="cls-4" d="M133,85.36h5c5.52,0,8.91,1.89,8.91,9.14s-7.41,16.09-12.92,16.09l-5.61,1c-5.52,0-5.35-5.88-5.35-13.13S127.49,85.36,133,85.36Z"/><path class="cls-4" d="M68.06,85.4h-5c-5.5,0-8.88,1.88-8.88,9.11s7.38,16,12.88,16l5.6,1c5.49,0,5.33-5.87,5.33-13.1S73.56,85.4,68.06,85.4Z"/><path class="cls-5" d="M170.28,193c-2.59-8.73-5.18-13.34-13.52-16.4-9-4.7-24.15-11.88-32.59-15.93-10.56-5.3-9.76-15.71-9.94-18.53s2.81-8.8,11.65-17.19c8.93-12.11,9.59-27.68,10.55-43,.69-11,.86-25-4.91-34.54S112.7,33.29,101.41,33.22h-.26c-11.28.07-24.92,4.63-30.7,14.21S64.85,71,65.54,82c1,15.31,1.93,30.88,10.86,43,9.37,8.39,9.75,14.74,9.58,17.49s-.21,14.57-8.69,18.23c-8.64,3.73-25.54,13.8-34.57,17.12-8.34,3.06-11.72,7.87-14.31,16.6"/><path class="cls-6" d="M174,251.42c1.78-2.06.95-43.2-3.57-58.41-2.59-8.73-5.18-13.33-13.51-16.4-6.46-3.36-16-8-24-11.82-8,3.74-19.5,6.1-32.32,6.1-12.61,0-23.93-2.28-31.92-5.91C60,169.49,49.39,175.4,42.86,177.8c-8.33,3.06-11.72,7.87-14.31,16.6-4.69,15.77-3.73,55.09-2.52,56.5"/><ellipse class="cls-7" cx="83.22" cy="86.93" rx="2.78" ry="3.02"/><ellipse class="cls-7" cx="116.52" cy="86.93" rx="2.78" ry="3.02"/><path class="cls-8" d="M66.11,93.26a120.18,120.18,0,0,1-3.28-26.79c-.23-18,.74-23.37,7.89-31.65,0,0-4.22-.82-5.69-6.66a54.54,54.54,0,0,0,21,0c11.34-2.27,42.67.81,47.7,13s5.26,41.76,1.9,52.69c0,0-4.82-32-9.53-40.36,0,0-42.85-3.4-51-3.4,0,0-6,14.28-6.66,18.34,0,0-4,15.26-2.11,23.21"/><path class="cls-9" d="M89.5,117.48a26,26,0,0,0,24.34,0"/><path class="cls-10" d="M157.42,176.58l-.39-.15c-6.46-3.37-16-8-24-11.83-8,3.74-19.52,6.11-32.36,6.11-12.63,0-24-2.29-32-5.92-7.6,4-16.71,9-23.24,11.79Z"/><path class="cls-10" d="M171.32,195.8c-.24-1.05-.49-2.06-.75-2.94a35.76,35.76,0,0,0-3.81-9.19H33.64c-2.27,2.7-3.8,6.13-5.12,10.57-.15.49-.29,1-.42,1.56Z"/><path class="cls-11" d="M156.76,176c-9-4.71-24.15-11.88-32.59-15.93-10.56-5.3-9.76-15.72-9.94-18.53-.14-2.08,1.57-6.09,6.27-11.58-5.8,4.83-13.55,10.52-20.55,10.52s-12.54-5.72-18.37-10.61c4.32,5.64,4.53,9.87,4.4,12-.18,2.81-.21,14.57-8.69,18.23-8.64,3.72-25.54,13.8-34.57,17.11C34.38,180.21,31,185,28.41,193.75l141.87-1.39C167.69,183.63,165.1,179,156.76,176Z"/></g></g></svg>