<svg xmlns="http://www.w3.org/2000/svg" xmlns:xlink="http://www.w3.org/1999/xlink" viewBox="0 0 200 200"><defs><style>.cls-1{isolation:isolate;}.cls-2{fill:#b187ce;}.cls-3{fill:#351e07;}.cls-11,.cls-3,.cls-4{fill-rule:evenodd;}.cls-4{fill:#f3bc8c;}.cls-5{fill:#f2cb9e;}.cls-6{mix-blend-mode:multiply;fill:url(#linear-gradient);}.cls-7{fill:#7999a3;}.cls-8{fill:#fff;}.cls-9{fill:#353542;}.cls-10{fill:#6b4132;}.cls-11{fill:none;stroke:#a13b36;stroke-miterlimit:10;stroke-width:0.62px;}</style><linearGradient id="linear-gradient" x1="99.4" y1="148.15" x2="99.4" y2="97.1" gradientUnits="userSpaceOnUse"><stop offset="0" stop-color="#fff6e9"/><stop offset="1" stop-color="#e98f00"/></linearGradient></defs><title>susan</title><g class="cls-1"><g id="レイヤー_1" data-name="レイヤー 1"><rect class="cls-2" width="200" height="200"/><path class="cls-3" d="M117,72.38,100,89.16l2.54,26.2c-4,52.77,56.78,56.77,56.78,56.77-26.17-9.94-17.24-48.08-17.24-48.08s5.5-15.59,2.69-47.77V66.35Z"/><path class="cls-3" d="M86.54,68.54l17,16.79L101,111.52c4,52.77-51,57.76-51,57.76,26.17-9.95,13.17-50,13.17-50s-7.2-14.61-4.39-46.8V62.51Z"/><path class="cls-4" d="M135.07,83.24h4.48c4.94,0,8,1.7,8,8.2s-6.64,14.43-11.59,14.43l-5,.93c-5,0-4.8-5.28-4.8-11.78S130.12,83.24,135.07,83.24Z"/><path class="cls-4" d="M66.57,84.57H62.34c-4.66,0-7.53,1.6-7.53,7.74s6.27,13.61,10.94,13.61l4.74.88c4.67,0,4.53-5,4.53-11.12S71.24,84.57,66.57,84.57Z"/><path class="cls-5" d="M170,187.84c-2.58-8.69-5.16-13.27-13.45-16.33-9-4.68-24.05-11.82-32.44-15.85-10.51-5.27-9.72-15.64-9.9-18.44s2.8-8.76,11.6-17.11c8.89-12.06,9.55-27.55,10.5-42.79.69-10.93.85-24.85-4.89-34.38s-18.73-14.07-30-14.14h-.26C90,28.87,76.39,33.41,70.65,42.94s-5.58,23.45-4.9,34.38c1,15.24,1.92,30.73,10.81,42.79,9.33,8.35,9.71,14.67,9.54,17.41s-.21,14.49-8.65,18.14c-8.6,3.71-25.42,13.73-34.41,17-8.29,3.06-11.66,7.84-14.24,16.53"/><path class="cls-3" d="M66.57,84.57C74.45,76.29,81,59.74,81,59.74c22.15,25.55,61.14,21.43,64.19,21.06V65.61c-3.56-31.89-19.73-44.18-43.74-43.75-24.16.44-43.75,19.59-43.18,44.31V82.76Z"/><path class="cls-6" d="M155.85,171.89c-8.89-4.62-23.75-11.68-32-15.66C113.42,151,114.2,140.78,114,138c-.13-2.05,1.54-6,6.17-11.38C114.5,131.38,106.88,137,100,137s-12.32-5.63-18-10.44c4.24,5.54,4.45,9.7,4.32,11.77-.17,2.77-.21,14.32-8.54,17.92-8.49,3.66-25.1,13.57-34,16.83-8.19,3-11.51,7.74-14.06,16.32L169.13,188C166.59,179.43,164,174.9,155.85,171.89Z"/><path class="cls-7" d="M101.43,39.73c19.31,0,35.13,14.44,36.7,32.81.09-1,.16-2,.16-3,0-19.77-16.51-35.81-36.86-35.81s-36.86,16-36.86,35.81c0,1,.07,2,.15,3C66.3,54.17,82.11,39.73,101.43,39.73Z"/><path class="cls-8" d="M174.12,287.46c1.79-2.07,1-84.47-3.56-99.7C168,179,165.37,174.41,157,171.34c-6.46-3.37-16-8-24-11.83-8,3.74-19.52,6.11-32.36,6.11-12.62,0-24-2.29-31.95-5.92-8.67,4.51-19.29,10.43-25.83,12.83-8.34,3.07-11.72,7.88-14.32,16.62-4.7,15.79-3.74,96.37-2.52,97.79"/><path class="cls-9" d="M170.56,187.6c-2.6-8.73-5.19-13.35-13.54-16.42-6.17-3.21-22.44-11.8-30.22-15.54L80.41,287.09l93.71.21C175.91,285.23,175.08,202.83,170.56,187.6Z"/><path class="cls-9" d="M42.84,172.37c-8.34,3.07-11.72,7.88-14.32,16.62-4.7,15.79-3.74,96.37-2.52,97.79l98.75.19L74.93,155.64C66.31,160.14,49.32,170,42.84,172.37Z"/><polygon class="cls-8" points="80.41 153.79 89.39 175.72 75.02 188.93 70.92 159.51 80.41 153.79"/><polygon class="cls-8" points="123.13 153.79 114.16 175.72 128.53 188.93 132.62 159.51 123.13 153.79"/><ellipse class="cls-10" cx="89.05" cy="95.02" rx="2.16" ry="2.35"/><ellipse class="cls-10" cx="114.95" cy="95.02" rx="2.16" ry="2.35"/><path class="cls-11" d="M95.87,117.2s5.34,9.19,15.36,0"/></g></g></svg>