<?xml version="1.0" encoding="UTF-8"?>
<svg enable-background="new 0 0 45 45" version="1.1" viewBox="0 0 45 45" xml:space="preserve" xmlns="http://www.w3.org/2000/svg">
<style type="text/css">.st0{fill:#CFD4DA;}.st1{fill:#FFFFFF;fill-opacity:0.75;}</style>
<rect class="st0" width="45" height="45"/>
<path class="st1" d="m12.4 41.9c0-1.7 2.1-3.8 3.5-4.7 0.5-0.4 3-1.9 5.5-3.4l-3.7-2.3c-0.4-0.2-0.6-1.7-0.6-1.7s2.4-5.4 2.9-6.4c0 0 1.1-0.4 1.6-2.7 0.2-0.8 0-1.5-0.5-2.1v-3c0-3.7-4.4-6.6-7.7-6.6s-7.7 2.9-7.7 6.6v3c-0.7 0.6-0.9 1.4-0.8 2.1 0.5 2.4 1.6 2.7 1.6 2.7 0.4 0.9 2.9 6.4 2.9 6.4s-0.2 1.5-0.6 1.7c0 0-9.2 5.7-10.3 6.4-1.4 1-3.1 2.8-3.1 4v5.1h16.9v-5.1z"/>
<path class="st1" d="m31.8 47h17.7v-5.1c0-1.2-1.7-3-3.1-4-1-0.7-10.3-6.4-10.3-6.4-0.4-0.2-0.6-1.7-0.6-1.7s2.4-5.4 2.9-6.4c0 0 1.1-0.4 1.6-2.7 0.2-0.8 0-1.5-0.5-2.1v-3c0-3.7-4.3-6.6-7.7-6.6s-7.7 2.9-7.7 6.6v3c-0.5 0.6-0.7 1.4-0.5 2.1 0.5 2.4 1.6 2.7 1.6 2.7 0.4 0.9 2.9 6.4 2.9 6.4s-0.2 1.5-0.6 1.7c0 0-9.2 5.7-10.3 6.4-1.4 1-3.1 2.8-3.1 4v5.1h17.7z"/>
</svg>
