<?xml version="1.0" encoding="UTF-8"?>
<svg enable-background="new 0 0 45 45" version="1.1" viewBox="0 0 45 45" xml:space="preserve" xmlns="http://www.w3.org/2000/svg">
<style type="text/css">.st0{fill:#CFD4DA;}.st1{fill:#FFFFFF;fill-opacity:0.75;}</style>
<rect class="st0" width="45" height="45"/>
	<path class="st1" d="m22.5 51h21v-6.1c0-1.4-2-3.6-3.7-4.8-1.2-0.8-12.1-7.6-12.1-7.6-0.5-0.3-0.7-2-0.7-2s2.9-6.4 3.4-7.5c0 0 1.4-0.4 1.9-3.2 0.2-0.9 0-1.8-0.6-2.5v-3.5c0-4.4-5.2-7.8-9.2-7.8s-9.1 3.4-9.1 7.8v3.5c-0.6 0.7-0.8 1.6-0.6 2.5 0.6 2.8 1.9 3.2 1.9 3.2 0.5 1.1 3.4 7.5 3.4 7.5s-0.3 1.7-0.7 2c0 0-11 6.8-12.2 7.6-1.7 1.2-3.7 3.4-3.7 4.8v6.1h21z"/>
</svg>
