<svg xmlns="http://www.w3.org/2000/svg" width="52" height="32"><defs/><g fill="none" fill-rule="evenodd"><path fill="#464F69" d="M15.96-.003h20.08c8.815 0 15.961 7.146 15.961 15.96v.08c0 8.814-7.146 15.96-15.96 15.96H15.96C7.146 31.997 0 24.851 0 16.037v-.08C0 7.144 7.146-.003 15.96-.003z"/><path d="M18.75 7.997a8 8 0 110 16 8 8 0 010-16zm2.35 9.278l-.095.152a2.71 2.71 0 01-2.255 1.203c-.98 0-1.868-.523-2.35-1.355l-.977.566.112.182a3.84 3.84 0 006.542-.183l-.977-.565zm.233-3.793a.93.93 0 100 1.86.93.93 0 000-1.86zm-5.166 0a.93.93 0 10-.001 1.859.93.93 0 00.001-1.859z" fill="#B7CAFF" opacity=".35"/><path d="M37.366 8.374c.457-.009.853.134 1.188.427.351.276.572.633.66 1.068.047.177.068.398.064.66a3.015 3.015 0 01-.299 1.296 7.566 7.566 0 01.903.926 6.158 6.158 0 011.296 2.9 6.087 6.087 0 01.063.79 6.154 6.154 0 01-.502 2.817.565.565 0 00-.05.142 5.958 5.958 0 00-.134.246v.02a.86.86 0 00-.102.174 8.18 8.18 0 01-1.327 1.638 9.14 9.14 0 01-2.529 1.664l-.057.026-.095.033a.357.357 0 01-.077.025 8.095 8.095 0 01-1.632.421c-.521.078-.917.12-1.188.123a8.919 8.919 0 01-2.141-.123 3.6 3.6 0 01-.299-.064.826.826 0 00-.12-.026 11.149 11.149 0 01-1.201-.389 7.673 7.673 0 01-1.989-1.185 9.188 9.188 0 01-.895-.822l-.007-.006a10.15 10.15 0 00-.216-.24l-.063-.104a5.99 5.99 0 01-.567-.814 5.101 5.101 0 01-.33-.687 6.28 6.28 0 01-.464-2.175 5.603 5.603 0 01.038-.997c.017-.246.053-.492.108-.738.288-1.213.955-2.314 2.002-3.302a1.18 1.18 0 01.21-.214c-.014-.013-.018-.03-.014-.052a3.26 3.26 0 01-.336-1.314c-.013-.639.171-1.157.552-1.554a1.861 1.861 0 011.201-.544c.573-.018 1.037.15 1.393.504.212.216.437.594.674 1.133.368-.082.743-.15 1.124-.207.259-.022.517-.039.775-.052a8.88 8.88 0 012.503.22c.17-.453.345-.8.528-1.042.063-.078.133-.147.21-.207.3-.246.681-.378 1.143-.395zm-3.929 7.933h-.459c-.394.006-.82.048-.898.328-.061.222.211.666.563.94v.99l-1.631 1.664.795.732 1.492-1.556 1.325 1.182.752-.842-1.603-1.431v-.74c.352-.274.624-.717.563-.94-.077-.279-.504-.32-.899-.327zm1.733-2.512a.916.916 0 100 1.831.916.916 0 000-1.831zm-3.922 0a.915.915 0 10.001 1.83.915.915 0 00-.001-1.83z" fill="#FFF"/></g></svg>