<svg xmlns="http://www.w3.org/2000/svg" viewBox="0 0 189.83 51.02"><defs><style>.a{fill:#fff;}</style></defs><title>lineat</title><path class="a" d="M37.89,47.94h6.72a1.54,1.54,0,0,0,1.55-1.55V4.63a1.55,1.55,0,0,0-1.55-1.55H37.89a1.56,1.56,0,0,0-1.55,1.55V46.39A1.55,1.55,0,0,0,37.89,47.94Z"/><path class="a" d="M55.11,47.94h6.72a1.54,1.54,0,0,0,1.55-1.55V20.11l20,27.17a1.8,1.8,0,0,0,.39.39l.31.16.15.05a1.7,1.7,0,0,0,.42.06h6.47a1.55,1.55,0,0,0,1.55-1.55V4.63a1.56,1.56,0,0,0-1.55-1.55H84.39a1.56,1.56,0,0,0-1.55,1.55v26l-20-26.88-.13-.17-.1-.1-.11-.1-.12-.08L62,3.14l-.29-.05h-6.6a1.56,1.56,0,0,0-1.55,1.55V46.39A1.55,1.55,0,0,0,55.11,47.94Z"/><path class="a" d="M1.55,47.94H28.41A1.55,1.55,0,0,0,30,46.39V39.67a1.54,1.54,0,0,0-1.54-1.55H9.82V4.63A1.55,1.55,0,0,0,8.27,3.08H1.55A1.56,1.56,0,0,0,0,4.63V46.39a1.53,1.53,0,0,0,.43,1.07A1.57,1.57,0,0,0,1.55,47.94Z"/><path class="a" d="M100.55,47.52a1.52,1.52,0,0,0,1.06.42h26.86A1.56,1.56,0,0,0,130,46.39V39.67a1.55,1.55,0,0,0-1.55-1.55H109.89v-7.7h18.58A1.55,1.55,0,0,0,130,28.87V22.15a1.56,1.56,0,0,0-1.55-1.55H109.89V12.91h18.58A1.56,1.56,0,0,0,130,11.36V4.63a1.56,1.56,0,0,0-1.55-1.55H101.61a1.58,1.58,0,0,0-1.08.44,1.56,1.56,0,0,0-.47,1.11V46.39a1.58,1.58,0,0,0,.43,1.07Z"/><path class="a" d="M164.32,0a25.51,25.51,0,1,0,7.92,49.77l1.52-.54a1,1,0,0,0,.67-1.29L173,43.45a1,1,0,0,0-1.29-.66l-1.52.54a18.75,18.75,0,1,1,12.91-17.82,19.78,19.78,0,0,1-1.19,6.57c-.57,1.64-1.89,3-3,3a2.62,2.62,0,0,1-2.61-2.62v-18a1,1,0,0,0-1-1h-4.73a1,1,0,0,0-1,1l0,.4-.35-.19A12.46,12.46,0,1,0,169.93,36l.25-.16.12.28a9.39,9.39,0,0,0,8.62,5.68c4,0,7.78-3,9.35-7.5a26.9,26.9,0,0,0,1.56-8.81A25.54,25.54,0,0,0,164.32,0Zm5.12,25.51a6.16,6.16,0,1,1-6.15-6.15A6.16,6.16,0,0,1,169.44,25.51Z"/></svg>